<?xml version="1.0" encoding="utf-8"?>
<!-- Generator: Adobe Illustrator 27.5.0, SVG Export Plug-In . SVG Version: 6.00 Build 0)  -->
<svg version="1.1" id="Layer_1" xmlns="http://www.w3.org/2000/svg" xmlns:xlink="http://www.w3.org/1999/xlink" x="0px" y="0px"
	 viewBox="0 0 4000 4000" style="enable-background:new 0 0 4000 4000;" xml:space="preserve">
<g>
	<rect style="fill-rule:evenodd;clip-rule:evenodd;fill:#FFFFFF;" width="4000" height="1999.998"/>
	<rect y="1999.998" style="fill-rule:evenodd;clip-rule:evenodd;" width="4000" height="2000.002"/>
	<polygon style="fill-rule:evenodd;clip-rule:evenodd;" points="1066.563,1643.734 1706.088,1643.734 1962.151,1643.734 
		1834.119,1421.976 1346.428,577.271 1218.836,356.268 1217.961,356.268 1090.365,577.271 602.673,1421.976 474.643,1643.734 
		730.705,1643.734 858.736,1421.976 1218.396,799.03 1578.056,1421.976 1194.594,1421.976 	"/>
	<polygon style="fill-rule:evenodd;clip-rule:evenodd;" points="1412.026,463.653 1965.316,1421.976 2093.347,1643.734 
		2349.414,1643.734 2477.446,1421.976 2515.364,1356.298 2553.287,1421.976 2681.319,1643.734 2937.382,1643.734 3065.417,1421.976 
		3103.335,1356.298 3141.253,1421.976 3269.285,1643.734 3525.354,1643.734 3397.322,1421.976 2782.034,356.268 2525.966,356.268 
		2975.304,1134.538 2809.35,1421.976 2194.062,356.268 1937.999,356.268 2387.333,1134.538 2221.384,1421.976 2221.379,1421.976 
		1606.096,356.268 1474.024,356.268 1350.028,356.268 	"/>
	<polygon style="fill-rule:evenodd;clip-rule:evenodd;fill:#FFFFFF;" points="1066.563,3643.732 1706.088,3643.732 
		1962.151,3643.732 1834.119,3421.974 1346.428,2577.269 1218.836,2356.266 1217.961,2356.266 1090.365,2577.269 602.673,3421.974 
		474.643,3643.732 730.705,3643.732 858.736,3421.974 1218.396,2799.027 1578.056,3421.974 1194.594,3421.974 	"/>
	<polygon style="fill-rule:evenodd;clip-rule:evenodd;fill:#FFFFFF;" points="1412.026,2463.651 1965.316,3421.974 
		2093.347,3643.732 2349.414,3643.732 2477.446,3421.974 2515.364,3356.295 2553.287,3421.974 2681.319,3643.732 2937.382,3643.732 
		3065.417,3421.974 3103.335,3356.295 3141.253,3421.974 3269.285,3643.732 3525.354,3643.732 3397.322,3421.974 2782.034,2356.266 
		2525.966,2356.266 2975.304,3134.535 2809.35,3421.974 2194.062,2356.266 1937.999,2356.266 2387.333,3134.535 2221.384,3421.974 
		2221.379,3421.974 1606.096,2356.266 1474.024,2356.266 1350.028,2356.266 	"/>
</g>
</svg>
